# xmcd
# 
# Track frame offsets:
#     150
#     11290
#     23797
#     40528
#     53109
#     69598
#     82891
#     95139
#     113511
#     126803
# 
# Disc length: 1888
# 
# Revision: 0
# Processed by: cddbd v1.5.2PL0 Copyright (c) Steve Scherf et al.
# Submitted via: fre:ac v1.0.17
# 
DISCID=6f075e0a
DTITLE=Tim_McGraw - Not a Moment Too Soon
DYEAR=1994
DGENRE=Country
TTITLE0=It Doesn't Get Any Countrier Than This
TTITLE1=Give It to Me Strait
TTITLE2=Wouldn't Want It Any Other Way
TTITLE3=Down on the Farm
TTITLE4=Not a Moment Too Soon
TTITLE5=Indian Outlaw
TTITLE6=Refried Dreams
TTITLE7=Don't Take The Girl
TTITLE8=40 Days and 40 Nights
TTITLE9=Ain't That Just Like a Dream
EXTD=
EXTT0=
EXTT1=
EXTT2=
EXTT3=
EXTT4=
EXTT5=
EXTT6=
EXTT7=
EXTT8=
EXTT9=
PLAYORDER=
